<mxfile host="app.diagrams.net" modified="2023-10-18T09:30:14.534Z" agent="Mozilla/5.0 (Windows NT 10.0; Win64; x64) AppleWebKit/537.36 (KHTML, like Gecko) Chrome/115.0.0.0 Safari/537.36" version="21.7.4" etag="QeehDpgSSQA6ln_j7nwu" type="github">
  <diagram name="第 1 页" id="9s1VPIeq_v-_TXC7DsHF">
    <mxGraphModel>
      <root>
        <mxCell id="0" />
        <mxCell id="1" parent="0" />
      </root>
    </mxGraphModel>
  </diagram>
</mxfile>
